<?xml version="1.0" encoding="utf-8"?>
<!-- Generator: Adobe Illustrator 18.1.1, SVG Export Plug-In . SVG Version: 6.00 Build 0)  -->
<svg version="1.1" id="Слой_1" xmlns="http://www.w3.org/2000/svg" xmlns:xlink="http://www.w3.org/1999/xlink" x="0px" y="0px"
	 viewBox="0 0 326.3 65.7" enable-background="new 0 0 326.3 65.7" xml:space="preserve">
<g>
	<path fill="#E6E7E8" stroke="#231F20" stroke-width="2.8329" stroke-miterlimit="10" d="M294,62.9H32.3C16.7,62.9,4,50.1,4,34.6
		v-3.3C4,15.6,16.7,2.9,32.3,2.9H294c15.6,0,28.3,12.7,28.3,28.3v3.3C322.3,50.1,309.6,62.9,294,62.9z"/>
	<path fill="#231F20" stroke="#231F20" stroke-width="2.4823" stroke-miterlimit="10" d="M292.8,56.9H32.6
		C20.2,56.9,10,46.7,10,34.2v-2.7C10,19.1,20.2,8.9,32.6,8.9h260.2c12.5,0,22.7,10.2,22.7,22.7v2.7
		C315.5,46.7,305.3,56.9,292.8,56.9z"/>
</g>
<g>
	<path fill="#FFFFFF" d="M52.9,28.3l5.9-9.1c0.3-0.5,0.7-1,1-1.4c0.3-0.4,0.7-0.8,1.2-1.1c0.5-0.4,1.1-0.7,1.7-0.9
		c0.7-0.2,1.4-0.3,2.2-0.3c0.8,0,1.6,0.1,2.3,0.4c0.7,0.2,1.2,0.6,1.6,0.9c0.4,0.4,0.8,0.8,1.1,1.4c0.3,0.6,0.5,1,0.7,1.5
		c0.1,0.4,0.3,0.9,0.3,1.5c0.1,0.6,0.1,1,0.1,1.3c0,0.3,0,0.6,0,0.9v27.2h-9.6V29.8h-0.1l-4.8,7.5c-0.3,0.4-0.4,0.7-0.5,0.8
		c-0.1,0.2-0.3,0.4-0.6,0.7c-0.3,0.3-0.5,0.6-0.7,0.7c-0.2,0.1-0.5,0.3-0.8,0.4c-0.3,0.1-0.7,0.2-1,0.2c-0.4,0-0.7-0.1-1-0.2
		c-0.3-0.1-0.6-0.3-0.8-0.4s-0.5-0.4-0.7-0.7c-0.3-0.3-0.5-0.6-0.6-0.7c-0.1-0.2-0.3-0.4-0.6-0.8l-4.8-7.5h-0.1v20.8h-9.5V23.3
		c0-0.3,0-0.6,0-0.9s0.1-0.7,0.1-1.3c0.1-0.6,0.2-1.1,0.3-1.5c0.1-0.4,0.4-0.9,0.7-1.5c0.3-0.5,0.7-1,1.1-1.4s1-0.7,1.6-0.9
		c0.7-0.2,1.4-0.4,2.3-0.4c0.6,0,1.1,0,1.5,0.1c0.5,0.1,0.9,0.2,1.3,0.4c0.4,0.2,0.7,0.4,1.1,0.6c0.3,0.2,0.6,0.5,0.9,0.8
		c0.3,0.3,0.5,0.6,0.7,0.8c0.2,0.3,0.4,0.6,0.6,0.9L52.9,28.3z"/>
	<path fill="#FFFFFF" d="M97.9,15.9v8.4H84.8v4.9h13.1v7.4H84.8v5.4h13.1v8.4H83.8c-0.3,0-0.5,0-0.8,0c-0.3,0-0.6,0-1-0.1
		c-0.4-0.1-0.8-0.1-1.2-0.2c-0.4-0.1-0.8-0.2-1.3-0.4c-0.5-0.2-0.9-0.4-1.3-0.7c-0.4-0.3-0.8-0.6-1.1-1s-0.7-0.9-0.9-1.4
		c-0.3-0.5-0.5-1.1-0.6-1.8c-0.2-0.7-0.2-1.5-0.2-2.3V23.8c0-2.5,0.7-4.4,2.2-5.8c1.5-1.4,3.6-2.1,6.3-2.1H97.9z"/>
	<path fill="#FFFFFF" d="M114.5,26.3l4.5-10.4h10.6l-9,17.1l9.6,17.6h-10.6l-5-10.9l-5,10.9H98.9l9.6-17.6l-9-17.1H110L114.5,26.3z"
		/>
	<path fill="#FFFFFF" d="M147.1,15.5c1.8,0,3.5,0.5,4.8,1.5c1.4,1,2.4,2.5,3,4.5l8.8,29h-10.6l-1.7-6.4h-8.6l-1.7,6.4h-10.6l8.7-29
		c0.4-1.3,1-2.5,1.8-3.4c0.8-0.9,1.7-1.6,2.7-2S145.9,15.5,147.1,15.5z M144.1,36.2h6l-2.9-10.9H147L144.1,36.2z"/>
	<path fill="#FFFFFF" d="M166.2,15.9h9.6v12.9h8V15.9h9.5v34.7h-9.5V37.2h-8v13.4h-9.6V15.9z"/>
	<path fill="#FFFFFF" d="M198,15.9h9.5v19.8h0.2l7.7-16.5c1.1-2.4,3.1-3.7,5.8-3.7c0.8,0,1.6,0.1,2.2,0.4c0.7,0.2,1.2,0.5,1.6,0.9
		s0.8,0.8,1.1,1.3c0.3,0.6,0.5,1,0.6,1.5c0.1,0.4,0.2,0.9,0.3,1.5c0.1,0.6,0.1,1,0.1,1.3c0,0.3,0,0.6,0,0.9v27.2h-9.5V30.7h-0.2
		l-7.6,16.6c-1.1,2.4-3.1,3.6-5.8,3.6c-0.8,0-1.5-0.1-2.2-0.4c-0.7-0.2-1.2-0.6-1.6-0.9c-0.4-0.4-0.8-0.8-1.1-1.3
		c-0.3-0.5-0.5-1-0.6-1.5c-0.1-0.4-0.2-0.9-0.3-1.5c-0.1-0.6-0.1-1-0.1-1.3c0-0.3,0-0.6,0-0.9V15.9z"/>
	<path fill="#FFFFFF" d="M231.9,15.9h9.6v13.4h0.1l7.9-13.4h10.1l-8.5,13.4c2.4-0.1,4.3,0.6,5.8,2c1.4,1.4,2.2,3.4,2.2,5.9v13.4
		h-9.5V37.2h-8v13.4h-9.6V15.9z"/>
	<path fill="#FFFFFF" d="M277.7,15.5c1.8,0,3.5,0.5,4.8,1.5c1.4,1,2.4,2.5,3,4.5l8.8,29h-10.6l-1.7-6.4h-8.6l-1.7,6.4h-10.6l8.7-29
		c0.4-1.3,1-2.5,1.8-3.4s1.7-1.6,2.7-2C275.3,15.7,276.4,15.5,277.7,15.5z M274.6,36.2h6l-2.9-10.9h-0.2L274.6,36.2z"/>
</g>
</svg>
