<?xml version="1.0" encoding="utf-8"?>
<!-- Generator: Adobe Illustrator 17.0.0, SVG Export Plug-In . SVG Version: 6.00 Build 0)  -->
<!DOCTYPE svg PUBLIC "-//W3C//DTD SVG 1.1//EN" "http://www.w3.org/Graphics/SVG/1.1/DTD/svg11.dtd">
<svg version="1.1" id="Слой_1" xmlns="http://www.w3.org/2000/svg" xmlns:xlink="http://www.w3.org/1999/xlink" x="0px" y="0px"
	 width="120px" height="42px" viewBox="-0.2 0.2 120 42" enable-background="new -0.2 0.2 120 42" xml:space="preserve">
<g transform="translate(14 14)">
	<circle fill="#97CF26" cx="13.1" cy="15.5" r="8.6"/>
	<circle fill="#CF6CF7" cx="-3" cy="15.5" r="4"/>
	<circle fill="#FF6163" cx="13.1" cy="-0.6" r="5.5"/>
	<circle fill="#00AAFF" cx="-3" cy="-0.6" r="7"/>
	<path d="M43.9,19.4h4.4L40.2-3h-3.2l-8.2,22.4h4.4l1.6-4.3h7.7L43.9,19.4l-8-7.6l2.6-7l2.6,7H36L43.9,19.4z"/>
	<path d="M59.4,4.1l-4.1,11.1L51.2,4.1H47l5.6,15.3h5.3l5.6-15.3L59.4,4.1"/>
	<g>
		<path d="M65.3,4.1h4.2v15.3h-4.2V4.1z"/>
		<circle cx="67.4" cy="-0.3" r="2.7"/>
	</g>
	<path d="M84.2,7.5V4.1h-5v-4.2h-4.2v4.2h-3.3v3.4h3.3v6.6c0,3.4,1.7,5.7,6,5.7c1.7,0,3.1-0.6,3.1-0.6l-0.5-3.3c0,0-0.8,0.2-1.8,0.2
		c-1.2,0-2.7-0.5-2.7-2.2V7.5L84.2,7.5"/>
	<path d="M93.8,15.9c-2.3,0-4.2-1.8-4.2-4.1c0-2.3,1.9-4.1,4.2-4.1c2.3,0,4.2,1.8,4.2,4.1C98,14.1,96.1,15.9,93.8,15.9 M93.8,3.7
		c-4.5,0-8.2,3.6-8.2,8c0,4.4,3.7,8,8.2,8c4.5,0,8.2-3.6,8.2-8C102,7.3,98.3,3.7,93.8,3.7"/>
</g>
</svg>
